<svg version="1.0" xmlns="http://www.w3.org/2000/svg" width="1306.667" height="1306.667" viewBox="0 0 980 980"><path d="M587 297.9c-15.2.7-17.1 1.4-20.8 8-3.8 6.7-2.3 14.3 3.7 19.4 4.3 3.6 8.2 4.1 21.3 2.8 6.1-.6 11.3-1 11.4-.8.1.1.9 5.1 1.8 11l1.6 10.8-3 5.9c-6.3 12.4-8.4 20.5-8.4 32.5-.1 10.1.1 11.5 2.8 16.8 2.8 5.7 8.2 10.9 15.4 14.8 3.6 2 3-.3 8.2 36.2l4.1 28.8-2 4.2-2 4.2 3.5 23.9c1.9 13.2 3.1 24.3 2.7 24.6-.5.4-4 1.9-8 3.4s-10.9 5-15.4 7.7c-21.6 12.9-35 27.7-46.9 51.7-6 12.1-9.4 16.2-16.3 19.9-3 1.7-8.4 1.8-71.2 2.1l-68 .3-1.9-6.8c-9.2-32.3-35.3-57.3-68.2-65.5-12.7-3.1-31.4-3.1-43.9.1-21.3 5.4-45.5 21.3-45.5 29.9 0 6.6 7.5 12.5 13.1 10.3 1.3-.5 5.2-3.2 8.7-6C275 579 293.1 572 305.2 572c5.2 0 7.1-1.1 6.6-3.6-.3-1.7-1.2-1.9-7.6-1.7-14.5.4-31.1 6.8-43.7 16.8-7 5.6-9.2 6.4-11.3 4.3-2.5-2.5-1.2-5.6 4-10.3 14.5-13 35.2-20.5 56.7-20.5 39.4 0 73.2 25.5 84.4 63.7l1.6 5.3h-19.6l-2.7-7.3c-7.6-20.8-27.1-37.8-48.4-42.2-15.3-3.1-29.7-1.3-44 5.6-12.1 5.8-24 17.7-30 30-16.2 32.8-3.5 72.1 28.7 88.8 10.9 5.6 18.5 7.4 31.6 7.4 12.8 0 22.5-2.6 33.5-9 13.2-7.7 25.8-23.7 30.1-38.1l1.2-4.2h24.2l4.2 4.9c7.4 8.5 3.8 8.2 83.4 7.9l69.4-.3 5.7-2.7c7.1-3.3 14.6-10.2 18-16.5 1.4-2.7 3.8-9.1 5.2-14.3 3.6-12.8 11.2-28 18.1-36.3 5.9-7.2 14.8-14.3 22.9-18.4 5.4-2.7 6.6-2.2 6.6 2.9 0 4.2 1.7 7.7 4.4 8.9 2 1 2.5 2.1 3.1 7.1.7 5.5.5 6.1-1.6 7.6-6.1 4.3-10.2 9-13.5 15.7-6.2 12.5-5.7 27.3 1.3 39.2 3.8 6.5 13.4 14.8 20 17.3 22.5 8.6 46.1-2.2 54.3-24.9 1.9-5 2.2-7.6 1.8-15.4-.3-8.1-.8-10.3-3.6-16-4.2-8.5-12.8-16.6-21-19.8-5.5-2.1-6.1-2.6-6.6-5.9-.8-5.1-.7-9 .3-9 .5 0 1.4-1.5 2.2-3.3.7-1.7 1.4-3.4 1.5-3.6.2-.1 3.2.7 6.8 1.9 17.2 5.7 31.5 20.4 37.9 39 2.6 7.2 3 10 3 18.5 0 17.5-5.7 31.1-18.2 43.6-13.1 13.1-27.5 18.6-46.1 17.6-12.7-.7-20.2-3-30.3-9.6-8.1-5.3-13-10.4-18.8-19.4-8.3-12.9-11.1-32-7-47.2 2.8-10 7.2-18.4 13.3-25.1 5.2-5.7 5.6-6.5 3.3-8.4-1.3-1.1-2.1-.8-5.1 2.1-5.1 4.9-12 15.7-14.8 23-12 32 2.3 68.4 32.5 83.2 5.2 2.5 11.9 5.1 14.9 5.8 7.3 1.7 23.1 1.7 30 0 19.8-4.9 36.3-18 44.9-35.5 18.5-37.9-.8-81.7-41.4-94.1l-7-2.2-6.1-43.5c-3.4-23.9-6.8-44.7-7.6-46.2-1.3-2.4-1.2-3.4 1-9.9 3.4-9.8 4.1-23.5 1.7-30.7-1.7-5.1-7-11.6-12.4-15.3-2.3-1.5-2.7-3.4-7.7-38.4-3-20.2-5.3-37.6-5.4-38.5 0-1.6.3-1.6 4.1-.3 2.2.8 7.8 2.2 12.4 3 13.6 2.6 14.5 1.4 14.5-18.4 0-13.9 0-14-2.6-16-2.4-1.9-4-2.1-18-2.1-8.5 0-15.4-.3-15.4-.8 0-4-2.3-12.8-3.9-15.1-4.5-6.3-7.5-6.6-42.1-5.2zm35.7 6.6c2.3 1.6 4.3 7 4.3 11.7 0 3.4.7 3.2-23.4 5.3-24.4 2.2-26.6 2.2-29.9.1-5.7-3.8-5.3-13.1.7-16.7 2.8-1.7 5.2-1.9 24.6-1.9 17.7 0 21.9.3 23.7 1.5zm40 20.2c1 .4 1.3 3.5 1.3 12.9 0 10.5-.3 12.6-1.6 13.1-1.9.7-16.1-2.2-21.6-4.4-2.4-1-4-2.3-4.3-3.7-1.3-6-2.5-16.8-1.9-17.7.6-1 25.6-1.2 28.1-.2zm-40.9 1c-.1.5-2.8 4.1-5.8 8.2l-5.5 7.4-.7-3.4c-.4-1.9-.8-5.2-1-7.4l-.3-4 6-.6c3.3-.3 6.4-.6 6.8-.7.5-.1.7.1.5.5zm13.7 49.2c3.6 25.6 6.5 47.3 6.3 48.2-.3 1.5-1.6 1.2-10.4-2.2-9-3.5-10.2-4.3-10.7-6.7-.3-1.5-2.4-16.5-4.8-33.4l-4.3-30.6 4.8-7.4c6-8.9 11.9-16.3 12.3-15.2.1.5 3.2 21.8 6.8 47.3zm-24.7 8.8c1.9 13.1 3.6 25 3.9 26.5.7 3.8-1.2 3.6-6.1-.4-6-4.9-8.6-11.5-8.6-21.8 0-4.7.7-10.9 1.4-13.8 1.6-6.1 4.8-14.2 5.6-14.2.3 0 2 10.7 3.8 23.7zm23.7 44.2l9 3.7 3.2 21.9c1.7 12.1 3.2 23.2 3.2 24.6.1 2.9-.3 3-13.4 4.4l-6 .7-3.9-27.3c-2.1-15.1-4-28.4-4.3-29.7-.7-3.1 1.4-2.8 12.2 1.7zm22.7 16.5c2.9 5.6 3.3 13.1 1.4 21.7-.9 4.1-2 8-2.5 8.7-.6 1-6.1-32.6-6.1-37.7 0-2.2 4.8 2.7 7.2 7.3zm-1.8 43.2c.9.8 1.6 1.8 1.6 2.2 0 .4 3 21.8 6.6 47.5 3.6 25.8 6.4 47.1 6.1 47.4-1 .9-28.2 4.2-28.9 3.5-.4-.4-1.2-3.8-1.8-7.6-.6-3.8-1.3-7.4-1.7-7.9-1.4-2.3-16.9 5.1-26.4 12.8-12.4 10-23 27.1-28.9 46.5-4.3 14.2-5.3 16.4-10.5 21.8-5.6 6-11.7 9.1-20.5 10.3-4 .6-33.5.9-70.2.7-68.7-.3-66.2-.1-71.3-5.8l-2-2.2 2.5.2c1.4.1 6.2.2 10.8.1 8-.1 8.3-.2 8-2.4l-.3-2.2-51.8-.3c-51.6-.2-51.8-.2-54 1.9-5.3 5.1-12.5 6.2-19.4 2.8-12.4-6-12.3-24.4.3-30.4 5.7-2.7 13.3-1.7 18.4 2.4l3.9 3.1 105.3-.2 105.3-.3 6.7-3.3c8.4-4.1 12.2-8.5 18.2-20.9 14.1-29 36.3-49.4 65.1-59.8 2.8-1 5.6-2.3 6.2-2.9 1-.9.5-6.4-2.4-26.9-3.2-22.3-3.5-26-2.2-27.2.8-.8 5.9-2 11.4-2.8 13.4-1.9 14.1-1.9 15.9-.1zm-334 93.9c18.9 3.3 36.3 16.4 44.6 33.5 2.2 4.6 4 9 4 9.7 0 1-2.5 1.3-10.3 1.3h-10.2l-3.3-5.4c-4-6.7-10.6-12.7-18.1-16.3-5.1-2.6-6.6-2.8-17.1-2.8-10.6 0-12 .2-17.2 2.8-8.8 4.3-15.2 10.7-19.5 19.5-3.7 7.3-3.8 8-3.8 18.1 0 9.8.2 11.1 3.1 17.2 12.4 26.1 46.2 32 66.6 11.5 2.4-2.4 5.5-6.4 6.8-9l2.5-4.6h10.2c12.2 0 12.1-.3 6.4 11.4-10.6 21.6-31.4 34.6-55.5 34.6-16.5 0-30.7-6-42.6-17.9-12.4-12.5-18-25.8-18.1-42.9-.1-31.1 22.2-57 52.6-61.1 8.7-1.2 10.2-1.2 18.9.4zm345 12.2c.3 1.6 1.5 9.3 2.6 17.3 1.9 13.8 2.1 14.6 5.4 18 4.6 4.8 5.6 7.1 5.6 12.5 0 6.1-2.5 11.1-6.9 14.1-7.2 4.7-14.8 4.4-20.8-.9-6.7-5.9-8-12.9-3.7-21.3l2.5-5-2.4-17c-1.4-9.3-2.3-17.1-2.1-17.3.1-.2 4.3-.9 9.1-1.6 4.8-.7 9.1-1.3 9.5-1.4.3-.1.9 1.1 1.2 2.6zm-341.2 15.5c6.2 2.9 13.3 8.9 16.1 13.7l1.8 3.1h-7.5c-6.7 0-8-.3-12.7-3.3-10.5-6.5-24.3-3.4-30.9 6.9-5.4 8.5-4.7 18.9 1.7 26.4 8.5 9.9 21.7 11.1 32.2 2.9 1.8-1.5 4.1-1.9 9.7-1.9 4.1 0 7.4.3 7.4.6s-1.4 2.6-3.1 5c-9.5 13.9-29.1 18.8-44.8 11.2-7-3.3-14.4-11.3-17.1-18.3-3.4-8.8-3.4-20 .2-27.6 8.5-18.5 29.4-26.7 47-18.7zm357.3 2.8c9.6 6.7 15.1 16 16.2 27.2 1.1 11.8-4.3 23.5-14.2 31-6.6 5-13 7-22.1 7-25.6 0-42.5-27.7-31.2-51.1 2.5-5.1 9.4-13.1 11.3-13.1.8 0 1.5 2.5 2 7.4.6 6.3.4 7.9-1.4 11.2-2.7 5-2.8 14.3-.2 19.9 5.3 11.5 19.7 16.1 31 9.9 13.5-7.3 15.9-24.5 5.1-35.9-1.8-2-3-4.5-3.5-7.5-.3-2.5-.9-5.8-1.2-7.3-.5-2.7-.3-2.8 1.8-2.2 1.3.4 4.2 2 6.4 3.5z"/><path d="M309.5 631.3c-2.3 1.7-1 4.4 2.5 5.1 6.1 1.2 6.1 9.8-.1 11.1-3.3.8-4.1 1.7-3.3 3.9 1.1 2.9 6.3 1.9 10-1.8 3.8-3.8 4.5-8.5 2-13.4-2.1-4.1-8.3-6.8-11.1-4.9zm351.3.3c-1.4 1.3.6 4.4 2.8 4.4 1.4 0 3 1 4 2.6 2.3 3.5.9 7.4-3.1 8.7-3.6 1.2-4.8 2.7-3.3 4.4 2.6 3.2 9.4.3 11.8-5 3.3-7.4-1.1-15.7-8.4-15.7-1.8 0-3.5.3-3.8.6zM455.6 344c-35.2 5.6-64.4 32.2-73.2 66.9-6 23.4-1.7 49.8 11.4 70.1 7.7 12 15.1 19.2 29.6 28.7 19.7 13 32 26.3 41 44.1 3.7 7.3 5.9 6.9 10.8-2.1 10.2-18.7 20.3-29.2 41.4-43 11.6-7.6 23.7-19.7 29.7-29.8 26.8-45.3 8.9-104.3-38.3-126.8-4.7-2.3-12.1-5-16.5-6.1-9.2-2.4-26.9-3.4-35.9-2zm33.4 7c17 4.1 34.3 15 45.3 28.5 11.7 14.4 17.6 30.2 18.5 48.9.8 17.9-2.3 31.5-10.4 45.8-7.4 13.2-15.1 20.9-31.4 31.6-17.6 11.7-30.2 24.5-38.3 39l-3.4 6.3-3.7-6.5c-8.5-15.1-20.6-27.4-38.6-39.1-16.6-10.8-25.2-20.1-32.8-35.2-15.9-31.5-10.5-68.9 13.6-94.5 3.7-3.9 9.1-8.9 12-11 7.1-5.3 20-11.3 29.2-13.7 10.5-2.8 28.5-2.8 40-.1z"/><path d="M451.3 363c-25.4 6.7-45.1 26.4-52 52-2.1 8-2.4 26.1-.4 34 11.2 45.3 59.7 68.5 101.6 48.6 17.4-8.3 30.7-23.4 37.1-42.1 3.5-10.3 4.4-27.1 2-38.4-3.1-14.8-12.9-30.5-25.1-40.4-7.6-6.1-20.3-12.3-29.1-14.2-9.7-2.1-25.2-1.8-34.1.5zm28.3 4.3c.3.3-1.9 11.7-5 25.4-3.1 13.6-5.6 25.8-5.6 26.9 0 1.2.7 2.5 1.6 2.8.9.3 8.7.6 17.5.6 8.7 0 15.9.4 15.9.8 0 .6-25.4 56.6-32.7 71.9-1.1 2.4-2.2 3.3-4 3.3-2.1 0-2.4-.3-1.9-2.8.3-1.5 2.6-14.6 5.2-29.1 4.4-25.2 4.5-26.5 2.8-27.8-1.3-1-6.5-1.3-19.6-1.3-9.8 0-17.8-.2-17.8-.6 0-2.5 11.3-67.1 11.8-67.6.4-.4 3.9-1.4 7.7-2.2 6.7-1.5 22.7-1.7 24.1-.3zm24.9 9c23.1 14.6 35.3 42.5 30.1 68.7-4.2 20.9-17.5 38.4-36.1 47.5-6.5 3.1-19.6 7-21.5 6.3-.7-.3 20.3-47.2 31.6-70.9 2.1-4.3 3.4-8.4 3.1-9.3-.6-1.4-3-1.6-18.7-1.6-9.9 0-18-.2-18-.5 0-.8 10-45.7 10.5-47.3.6-1.6 12 2.6 19 7.1zm-63.8-1.1c-.3 1.3-2.9 16.8-5.8 34.6-4.6 28-5.2 32.4-3.9 33.2.8.5 9.7 1 19.8 1 10 0 18.2.1 18.2.2 0 .2-2.2 12.4-4.9 27.3-5.4 30.7-4 28.2-14.6 24.8-15.5-4.8-31.7-18.1-38.7-31.8-9.9-19-10.5-41.7-1.8-60.1 5.7-11.9 17-24.1 27.5-29.7 4.1-2.2 4.8-2.1 4.2.5z"/></svg>