<?xml version="1.0" standalone="no"?>
<!DOCTYPE svg PUBLIC "-//W3C//DTD SVG 20010904//EN"
 "http://www.w3.org/TR/2001/REC-SVG-20010904/DTD/svg10.dtd">
<svg version="1.0" xmlns="http://www.w3.org/2000/svg"
 width="980.000000pt" height="980.000000pt" viewBox="0 0 980.000000 980.000000"
 preserveAspectRatio="xMidYMid meet">
<metadata>
Created by potrace 1.14, written by Peter Selinger 2001-2017
</metadata>
<g transform="translate(0.000000,980.000000) scale(0.100000,-0.100000)"
fill="#000000" stroke="none">
<path d="M5870 6821 c-152 -7 -171 -14 -208 -80 -38 -67 -23 -143 37 -194 43
-36 82 -41 213 -28 61 6 113 10 114 8 1 -1 9 -51 18 -110 l16 -108 -30 -59
c-63 -124 -84 -205 -84 -325 -1 -101 1 -115 28 -168 28 -57 82 -109 154 -148
36 -20 30 3 82 -362 l41 -288 -20 -42 -20 -42 35 -239 c19 -132 31 -243 27
-246 -5 -4 -40 -19 -80 -34 -40 -15 -109 -50 -154 -77 -216 -129 -350 -277
-469 -517 -60 -121 -94 -162 -163 -199 -30 -17 -84 -18 -712 -21 l-680 -3 -19
68 c-92 323 -353 573 -682 655 -127 31 -314 31 -439 -1 -213 -54 -455 -213
-455 -299 0 -66 75 -125 131 -103 13 5 52 32 87 60 112 91 293 161 414 161 52
0 71 11 66 36 -3 17 -12 19 -76 17 -145 -4 -311 -68 -437 -168 -70 -56 -92
-64 -113 -43 -25 25 -12 56 40 103 145 130 352 205 567 205 394 0 732 -255
844 -637 l16 -53 -98 0 -98 0 -27 73 c-76 208 -271 378 -484 422 -153 31 -297
13 -440 -56 -121 -58 -240 -177 -300 -300 -162 -328 -35 -721 287 -888 109
-56 185 -74 316 -74 128 0 225 26 335 90 132 77 258 237 301 381 l12 42 121 0
121 0 42 -49 c74 -85 38 -82 834 -79 l694 3 57 27 c71 33 146 102 180 165 14
27 38 91 52 143 36 128 112 280 181 363 59 72 148 143 229 184 54 27 66 22 66
-29 0 -42 17 -77 44 -89 20 -10 25 -21 31 -71 7 -55 5 -61 -16 -76 -61 -43
-102 -90 -135 -157 -62 -125 -57 -273 13 -392 38 -65 134 -148 200 -173 225
-86 461 22 543 249 19 50 22 76 18 154 -3 81 -8 103 -36 160 -42 85 -128 166
-210 198 -55 21 -61 26 -66 59 -8 51 -7 90 3 90 5 0 14 15 22 33 7 17 14 34
15 36 2 1 32 -7 68 -19 172 -57 315 -204 379 -390 26 -72 30 -100 30 -185 0
-175 -57 -311 -182 -436 -131 -131 -275 -186 -461 -176 -127 7 -202 30 -303
96 -81 53 -130 104 -188 194 -83 129 -111 320 -70 472 28 100 72 184 133 251
52 57 56 65 33 84 -13 11 -21 8 -51 -21 -51 -49 -120 -157 -148 -230 -120
-320 23 -684 325 -832 52 -25 119 -51 149 -58 73 -17 231 -17 300 0 198 49
363 180 449 355 185 379 -8 817 -414 941 l-70 22 -61 435 c-34 239 -68 447
-76 462 -13 24 -12 34 10 99 34 98 41 235 17 307 -17 51 -70 116 -124 153 -23
15 -27 34 -77 384 -30 202 -53 376 -54 385 0 16 3 16 41 3 22 -8 78 -22 124
-30 136 -26 145 -14 145 184 0 139 0 140 -26 160 -24 19 -40 21 -180 21 -85 0
-154 3 -154 8 0 40 -23 128 -39 151 -45 63 -75 66 -421 52z m357 -66 c23 -16
43 -70 43 -117 0 -34 7 -32 -234 -53 -244 -22 -266 -22 -299 -1 -57 38 -53
131 7 167 28 17 52 19 246 19 177 0 219 -3 237 -15z m400 -202 c10 -4 13 -35
13 -129 0 -105 -3 -126 -16 -131 -19 -7 -161 22 -216 44 -24 10 -40 23 -43 37
-13 60 -25 168 -19 177 6 10 256 12 281 2z m-409 -10 c-1 -5 -28 -41 -58 -82
l-55 -74 -7 34 c-4 19 -8 52 -10 74 l-3 40 60 6 c33 3 64 6 68 7 5 1 7 -1 5
-5z m137 -492 c36 -256 65 -473 63 -482 -3 -15 -16 -12 -104 22 -90 35 -102
43 -107 67 -3 15 -24 165 -48 334 l-43 306 48 74 c60 89 119 163 123 152 1 -5
32 -218 68 -473z m-247 -88 c19 -131 36 -250 39 -265 7 -38 -12 -36 -61 4 -60
49 -86 115 -86 218 0 47 7 109 14 138 16 61 48 142 56 142 3 0 20 -107 38
-237z m237 -442 l90 -37 32 -219 c17 -121 32 -232 32 -246 1 -29 -3 -30 -134
-44 l-60 -7 -39 273 c-21 151 -40 284 -43 297 -7 31 14 28 122 -17z m227 -165
c29 -56 33 -131 14 -217 -9 -41 -20 -80 -25 -87 -6 -10 -61 326 -61 377 0 22
48 -27 72 -73z m-18 -432 c9 -8 16 -18 16 -22 0 -4 30 -218 66 -475 36 -258
64 -471 61 -474 -10 -9 -282 -42 -289 -35 -4 4 -12 38 -18 76 -6 38 -13 74
-17 79 -14 23 -169 -51 -264 -128 -124 -100 -230 -271 -289 -465 -43 -142 -53
-164 -105 -218 -56 -60 -117 -91 -205 -103 -40 -6 -335 -9 -702 -7 -687 3
-662 1 -713 58 l-20 22 25 -2 c14 -1 62 -2 108 -1 80 1 83 2 80 24 l-3 22
-518 3 c-516 2 -518 2 -540 -19 -53 -51 -125 -62 -194 -28 -124 60 -123 244 3
304 57 27 133 17 184 -24 l39 -31 1053 2 1053 3 67 33 c84 41 122 85 182 209
141 290 363 494 651 598 28 10 56 23 62 29 10 9 5 64 -24 269 -32 223 -35 260
-22 272 8 8 59 20 114 28 134 19 141 19 159 1z m-3340 -939 c189 -33 363 -164
446 -335 22 -46 40 -90 40 -97 0 -10 -25 -13 -103 -13 l-102 0 -33 54 c-40 67
-106 127 -181 163 -51 26 -66 28 -171 28 -106 0 -120 -2 -172 -28 -88 -43
-152 -107 -195 -195 -37 -73 -38 -80 -38 -181 0 -98 2 -111 31 -172 124 -261
462 -320 666 -115 24 24 55 64 68 90 l25 46 102 0 c122 0 121 3 64 -114 -106
-216 -314 -346 -555 -346 -165 0 -307 60 -426 179 -124 125 -180 258 -181 429
-1 311 222 570 526 611 87 12 102 12 189 -4z m3450 -122 c3 -16 15 -93 26
-173 19 -138 21 -146 54 -180 46 -48 56 -71 56 -125 0 -61 -25 -111 -69 -141
-72 -47 -148 -44 -208 9 -67 59 -80 129 -37 213 l25 50 -24 170 c-14 93 -23
171 -21 173 1 2 43 9 91 16 48 7 91 13 95 14 3 1 9 -11 12 -26z m-3412 -155
c62 -29 133 -89 161 -137 l18 -31 -75 0 c-67 0 -80 3 -127 33 -105 65 -243 34
-309 -69 -54 -85 -47 -189 17 -264 85 -99 217 -111 322 -29 18 15 41 19 97 19
41 0 74 -3 74 -6 0 -3 -14 -26 -31 -50 -95 -139 -291 -188 -448 -112 -70 33
-144 113 -171 183 -34 88 -34 200 2 276 85 185 294 267 470 187z m3573 -28
c96 -67 151 -160 162 -272 11 -118 -43 -235 -142 -310 -66 -50 -130 -70 -221
-70 -256 0 -425 277 -312 511 25 51 94 131 113 131 8 0 15 -25 20 -74 6 -63 4
-79 -14 -112 -27 -50 -28 -143 -2 -199 53 -115 197 -161 310 -99 135 73 159
245 51 359 -18 20 -30 45 -35 75 -3 25 -9 58 -12 73 -5 27 -3 28 18 22 13 -4
42 -20 64 -35z"/>
<path d="M3095 3487 c-23 -17 -10 -44 25 -51 61 -12 61 -98 -1 -111 -33 -8
-41 -17 -33 -39 11 -29 63 -19 100 18 38 38 45 85 20 134 -21 41 -83 68 -111
49z"/>
<path d="M6608 3484 c-14 -13 6 -44 28 -44 14 0 30 -10 40 -26 23 -35 9 -74
-31 -87 -36 -12 -48 -27 -33 -44 26 -32 94 -3 118 50 33 74 -11 157 -84 157
-18 0 -35 -3 -38 -6z"/>
<path d="M4556 6360 c-352 -56 -644 -322 -732 -669 -60 -234 -17 -498 114
-701 77 -120 151 -192 296 -287 197 -130 320 -263 410 -441 37 -73 59 -69 108
21 102 187 203 292 414 430 116 76 237 197 297 298 268 453 89 1043 -383 1268
-47 23 -121 50 -165 61 -92 24 -269 34 -359 20z m334 -70 c170 -41 343 -150
453 -285 117 -144 176 -302 185 -489 8 -179 -23 -315 -104 -458 -74 -132 -151
-209 -314 -316 -176 -117 -302 -245 -383 -390 l-34 -63 -37 65 c-85 151 -206
274 -386 391 -166 108 -252 201 -328 352 -159 315 -105 689 136 945 37 39 91
89 120 110 71 53 200 113 292 137 105 28 285 28 400 1z"/>
<path d="M4513 6170 c-254 -67 -451 -264 -520 -520 -21 -80 -24 -261 -4 -340
112 -453 597 -685 1016 -486 174 83 307 234 371 421 35 103 44 271 20 384 -31
148 -129 305 -251 404 -76 61 -203 123 -291 142 -97 21 -252 18 -341 -5z m283
-43 c3 -3 -19 -117 -50 -254 -31 -136 -56 -258 -56 -269 0 -12 7 -25 16 -28 9
-3 87 -6 175 -6 87 0 159 -4 159 -8 0 -6 -254 -566 -327 -719 -11 -24 -22 -33
-40 -33 -21 0 -24 3 -19 28 3 15 26 146 52 291 44 252 45 265 28 278 -13 10
-65 13 -196 13 -98 0 -178 2 -178 6 0 25 113 671 118 676 4 4 39 14 77 22 67
15 227 17 241 3z m249 -90 c231 -146 353 -425 301 -687 -42 -209 -175 -384
-361 -475 -65 -31 -196 -70 -215 -63 -7 3 203 472 316 709 21 43 34 84 31 93
-6 14 -30 16 -187 16 -99 0 -180 2 -180 5 0 8 100 457 105 473 6 16 120 -26
190 -71z m-638 11 c-3 -13 -29 -168 -58 -346 -46 -280 -52 -324 -39 -332 8 -5
97 -10 198 -10 100 0 182 -1 182 -2 0 -2 -22 -124 -49 -273 -54 -307 -40 -282
-146 -248 -155 48 -317 181 -387 318 -99 190 -105 417 -18 601 57 119 170 241
275 297 41 22 48 21 42 -5z"/>
</g>
</svg>
